<svg width="23" height="24" viewBox="0 0 23 24" fill="none" xmlns="http://www.w3.org/2000/svg">
<path d="M21.49 16.8834C21.451 16.8504 17.018 13.6834 15.815 13.8834C15.237 13.9834 14.906 14.3834 14.244 15.1694C14.137 15.2964 13.881 15.6014 13.682 15.8174C13.2632 15.6801 12.8549 15.513 12.46 15.3174C10.421 14.3248 8.77357 12.6774 7.781 10.6384C7.58535 10.2435 7.41825 9.83515 7.281 9.41639C7.499 9.21639 7.804 8.96039 7.934 8.85139C8.719 8.19239 9.113 7.86139 9.215 7.28339C9.424 6.08339 6.251 1.64839 6.215 1.60839C6.07062 1.40525 5.88319 1.23648 5.66608 1.1141C5.44898 0.991714 5.20755 0.918745 4.959 0.900391C3.673 0.900391 0 5.66439 0 6.46739C0 6.51439 0.0670004 11.2544 5.912 17.1994C11.851 23.0384 16.591 23.1004 16.638 23.1004C17.438 23.1004 22.205 19.4274 22.205 18.1414C22.187 17.8911 22.1136 17.648 21.9901 17.4295C21.8667 17.2111 21.6962 17.0228 21.491 16.8784L21.49 16.8834ZM16.557 21.6204C15.91 21.5674 11.932 21.0424 6.957 16.1564C2.046 11.1564 1.535 7.16739 1.484 6.54939C2.45482 5.02687 3.62712 3.64266 4.969 2.43439C4.999 2.46439 5.038 2.50839 5.088 2.56639C6.11652 3.97049 7.00256 5.47358 7.733 7.05339C7.49544 7.29227 7.24436 7.5173 6.981 7.72739C6.57259 8.03875 6.19759 8.39164 5.862 8.78039L5.682 9.03239L5.735 9.33239C5.89162 10.0121 6.13178 10.6697 6.45 11.2904C7.58836 13.6279 9.47728 15.5165 11.815 16.6544C12.4346 16.9726 13.0913 17.2127 13.77 17.3694L14.07 17.4224L14.322 17.2424C14.7121 16.9051 15.0663 16.5285 15.379 16.1184C15.611 15.8414 15.921 15.4724 16.038 15.3674C17.623 16.097 19.1306 16.9841 20.538 18.0154C20.599 18.0674 20.638 18.1074 20.671 18.1334C19.4625 19.4751 18.0779 20.6471 16.555 21.6174L16.557 21.6204Z" fill="#FF5E14"/>
</svg>
