<svg width="1239" height="125" viewBox="0 0 1239 125" fill="none" xmlns="http://www.w3.org/2000/svg">
<path d="M7.68012 115.228L0.15361 118.752L6.84639 124.248L8.83934 116.18L7.68012 115.228ZM652 60.5L652.138 59.7629L652 60.5ZM1238.75 1.51694C1238.76 1.10283 1238.43 0.759545 1238.02 0.750191L1231.27 0.597766C1230.85 0.588412 1230.51 0.916531 1230.5 1.33064C1230.49 1.74475 1230.82 2.08803 1231.23 2.09738L1237.23 2.23287L1237.1 8.23134C1237.09 8.64545 1237.42 8.98873 1237.83 8.99809C1238.24 9.00744 1238.59 8.67932 1238.6 8.26521L1238.75 1.51694ZM8.35485 116.769C10.226 114.568 12.1419 112.412 14.1014 110.3L13.0018 109.28C11.0276 111.407 9.09732 113.58 7.21196 115.798L8.35485 116.769ZM36.6157 89.4201C44.5444 83.0787 52.9705 77.2518 61.853 71.9094L61.0799 70.624C52.1436 75.9987 43.6624 81.8633 35.6788 88.2487L36.6157 89.4201ZM89.1037 57.6339C98.282 53.4604 107.83 49.6917 117.714 46.3027L117.227 44.8838C107.301 48.2873 97.7081 52.0735 88.4828 56.2685L89.1037 57.6339ZM147.2 37.5375C156.995 35.0368 167.051 32.8456 177.341 30.9435L177.068 29.4685C166.748 31.3763 156.658 33.5745 146.829 36.0842L147.2 37.5375ZM207.734 26.2288C217.794 24.9483 228.035 23.9052 238.434 23.0824L238.316 21.5871C227.895 22.4116 217.63 23.4571 207.545 24.7408L207.734 26.2288ZM269.171 21.2923C279.333 20.9015 289.618 20.695 300.004 20.6581L299.998 19.1582C289.596 19.1951 279.294 19.4019 269.113 19.7934L269.171 21.2923ZM330.847 21.0254C341.042 21.2972 351.314 21.7135 361.643 22.2609L361.722 20.7631C351.381 20.2149 341.096 19.7981 330.887 19.5259L330.847 21.0254ZM392.427 24.2563C402.639 25.0339 412.889 25.9249 423.16 26.9167L423.304 25.4236C413.023 24.4309 402.763 23.5391 392.541 22.7606L392.427 24.2563ZM453.828 30.1602C464.035 31.3301 474.247 32.5869 484.445 33.9185L484.64 32.4311C474.434 31.0986 464.214 29.8408 453.998 28.67L453.828 30.1602ZM515 38.1276C525.206 39.6041 535.383 41.1439 545.513 42.7346L545.746 41.2527C535.61 39.6611 525.428 38.1205 515.214 36.6431L515 38.1276ZM575.967 47.6844C586.166 49.3956 596.298 51.1467 606.347 52.9247L606.608 51.4476C596.556 49.6689 586.419 47.917 576.215 46.205L575.967 47.6844ZM636.734 58.4209C641.804 59.3566 646.848 60.296 651.862 61.2371L652.138 59.7629C647.123 58.8214 642.078 57.8818 637.006 56.9458L636.734 58.4209ZM651.862 61.2371C656.806 62.1652 661.786 63.084 666.798 63.9914L667.065 62.5154C662.056 61.6085 657.08 60.6904 652.138 59.7629L651.862 61.2371ZM696.773 69.209C706.7 70.8657 716.728 72.4665 726.835 73.9979L727.059 72.5149C716.96 70.9846 706.94 69.385 697.02 67.7294L696.773 69.209ZM756.953 78.3143C766.97 79.6653 777.043 80.9373 787.152 82.1177L787.326 80.6278C777.226 79.4485 767.162 78.1776 757.154 76.8278L756.953 78.3143ZM817.414 85.3562C827.51 86.3355 837.624 87.2121 847.737 87.9736L847.849 86.4779C837.748 85.7172 827.645 84.8415 817.559 83.8633L817.414 85.3562ZM878.115 89.9043C888.281 90.4268 898.426 90.8201 908.531 91.0715L908.568 89.5719C898.477 89.3209 888.345 88.9282 878.192 88.4063L878.115 89.9043ZM938.972 91.3859C949.186 91.3371 959.338 91.127 969.407 90.7423L969.35 89.2434C959.298 89.6275 949.163 89.8372 938.965 89.886L938.972 91.3859ZM999.81 89.0151C1010.03 88.2359 1020.13 87.2552 1030.1 86.0582L1029.92 84.5689C1019.97 85.7632 1009.89 86.7418 999.696 87.5194L999.81 89.0151ZM1060.26 81.6883C1070.39 79.9545 1080.35 77.9666 1090.11 75.7074L1089.77 74.246C1080.04 76.4983 1070.11 78.4806 1060.01 80.2098L1060.26 81.6883ZM1119.54 67.8598C1129.41 64.8595 1139.02 61.5355 1148.34 57.8674L1147.79 56.4715C1138.51 60.1241 1128.94 63.4352 1119.11 66.4247L1119.54 67.8598ZM1176.17 45.4426C1185.34 40.8079 1194.17 35.7674 1202.61 30.2972L1201.79 29.0386C1193.4 34.4778 1184.62 39.4917 1175.49 44.1036L1176.17 45.4426ZM1227.15 12.2137C1231.05 8.94381 1234.84 5.55439 1238.52 2.04217L1237.48 0.957829C1233.83 4.44694 1230.06 7.8145 1226.18 11.0637L1227.15 12.2137Z" fill="#FF5E14" fill-opacity="0.4"/>
</svg>
